<svg xmlns="http://www.w3.org/2000/svg" enable-background="new 0 0 64 64" viewBox="0 0 64 64" id="copy"><path d="M49.89 17.78H22.69c-.54 0-.97-.43-.97-.97 0-.54.43-.97.97-.97h27.21c.54 0 .97.43.97.97C50.86 17.34 50.43 17.78 49.89 17.78zM49.89 27.25H22.69c-.54 0-.97-.43-.97-.97 0-.54.43-.97.97-.97h27.21c.54 0 .97.43.97.97C50.86 26.82 50.43 27.25 49.89 27.25zM49.89 36.73H22.69c-.54 0-.97-.43-.97-.97 0-.54.43-.97.97-.97h27.21c.54 0 .97.43.97.97C50.86 36.29 50.43 36.73 49.89 36.73zM49.89 46.2H22.69c-.54 0-.97-.43-.97-.97 0-.54.43-.97.97-.97h27.21c.54 0 .97.43.97.97C50.86 45.77 50.43 46.2 49.89 46.2z"></path><g><path d="M57.82,55.42H14.77c-0.54,0-0.97-0.43-0.97-0.97V0.97C13.8,0.43,14.23,0,14.77,0h34.47c0.26,0,0.5,0.1,0.69,0.28
					l8.58,8.58c0.18,0.18,0.28,0.43,0.28,0.69v44.9C58.79,54.98,58.35,55.42,57.82,55.42z M15.74,53.48h41.11V9.95l-8.01-8.01h-33.1
					V53.48z"></path><path d="M57.82,10.52h-8.58c-0.54,0-0.97-0.43-0.97-0.97V0.97C48.27,0.43,48.7,0,49.24,0c0.54,0,0.97,0.43,0.97,0.97v7.61h7.61
					c0.54,0,0.97,0.43,0.97,0.97C58.79,10.08,58.35,10.52,57.82,10.52z"></path></g><g><path d="M49.23,64H6.18c-0.54,0-0.97-0.43-0.97-0.97V9.55c0-0.54,0.43-0.97,0.97-0.97h8.59c0.54,0,0.97,0.43,0.97,0.97
					c0,0.54-0.43,0.97-0.97,0.97H7.15v51.54h41.11v-7.61c0-0.54,0.43-0.97,0.97-0.97s0.97,0.43,0.97,0.97v8.58
					C50.2,63.57,49.77,64,49.23,64z"></path></g></svg>