<svg xmlns="http://www.w3.org/2000/svg" xmlns:xlink="http://www.w3.org/1999/xlink" viewBox="0 0 1000 1000" width="1000" height="1000" preserveAspectRatio="xMidYMid meet" style="width: 100%; height: 100%; transform: translate3d(0px, 0px, 0px); content-visibility: visible;" id="Zoom"><defs><clipPath id="__lottie_element_2"><rect width="1000" height="1000" x="0" y="0"/></clipPath><filter id="__lottie_element_7"><feColorMatrix type="matrix" color-interpolation-filters="sRGB" values="0 0 0 0 0 0 0 0 0 0.6196078658103943 0 0 0 0 1 0 0 0 1 0" result="filter_result_0"/></filter></defs><g clip-path="url(#__lottie_element_2)"><g filter="url(#__lottie_element_7)" transform="matrix(0.6000006198883057,0,0,0.6000006198883057,305.90008544921875,311.9001159667969)" opacity="1" style="display: block;"><g opacity="1" transform="matrix(1,0,0,1,353.5,323.5)"><path fill="white" fill-opacity="1" d=" M467,-287 C467,-287 467,287 467,287 C467,386.3420104980469 386.3420104980469,467 287,467 C287,467 -287,467 -287,467 C-386.3420104980469,467 -467,386.3420104980469 -467,287 C-467,287 -467,-287 -467,-287 C-467,-386.3420104980469 -386.3420104980469,-467 -287,-467 C-287,-467 287,-467 287,-467 C386.3420104980469,-467 467,-386.3420104980469 467,-287z"/><path stroke-linecap="butt" stroke-linejoin="miter" fill-opacity="0" stroke-miterlimit="4" stroke="white" stroke-opacity="1" stroke-width="0" d=" M467,-287 C467,-287 467,287 467,287 C467,386.3420104980469 386.3420104980469,467 287,467 C287,467 -287,467 -287,467 C-386.3420104980469,467 -467,386.3420104980469 -467,287 C-467,287 -467,-287 -467,-287 C-467,-386.3420104980469 -386.3420104980469,-467 -287,-467 C-287,-467 287,-467 287,-467 C386.3420104980469,-467 467,-386.3420104980469 467,-287z"/></g></g><g transform="matrix(39.936038970947266,-0.000002176374437112827,0.000002176374437112827,39.936038970947266,518.0003051757812,506.00030517578125)" opacity="1" style="display: block;"><g opacity="1" transform="matrix(1,0,0,1,0,0)"><path fill="white" fill-opacity="1" d=" M0.5809999704360962,2.125999927520752 C0.5809999704360962,2.125999927520752 -0.6940000057220459,2.125999927520752 -0.6940000057220459,2.125999927520752 C-2.3949999809265137,2.125999927520752 -3.7839999198913574,0.7369999885559082 -3.7839999198913574,-0.9639999866485596 C-3.7839999198913574,-0.9639999866485596 -3.7839999198913574,-1.0199999809265137 -3.7839999198913574,-1.0199999809265137 C-3.7839999198913574,-1.6150000095367432 -3.2739999294281006,-2.125999927520752 -2.678999900817871,-2.125999927520752 C-2.678999900817871,-2.125999927520752 -1.4600000381469727,-2.125999927520752 -1.4600000381469727,-2.125999927520752 C0.296999990940094,-2.125999927520752 1.687000036239624,-0.7089999914169312 1.687000036239624,1.0199999809265137 C1.687000036239624,1.6150000095367432 1.2050000429153442,2.125999927520752 0.5809999704360962,2.125999927520752 C0.5809999704360962,2.125999927520752 0.5809999704360962,2.125999927520752 0.5809999704360962,2.125999927520752z M1.9700000286102295,-0.5669999718666077 C1.9700000286102295,-0.5669999718666077 1.9700000286102295,0.5669999718666077 1.9700000286102295,0.5669999718666077 C1.9700000286102295,0.5669999718666077 1.9989999532699585,0.9079999923706055 2.197000026702881,1.1059999465942383 C2.3949999809265137,1.2760000228881836 3.246000051498413,1.9839999675750732 3.246000051498413,1.9839999675750732 C3.3310000896453857,2.0409998893737793 3.38700008392334,2.069000005722046 3.4719998836517334,2.069000005722046 C3.5850000381469727,2.0969998836517334 3.700000047683716,2.0409998893737793 3.7279999256134033,1.9559999704360962 C3.7850000858306885,1.8140000104904175 3.7839999198913574,1.7289999723434448 3.7839999198913574,1.6160000562667847 C3.7839999198913574,1.531000018119812 3.7839999198913574,1.4450000524520874 3.7839999198913574,1.3320000171661377 C3.7839999198913574,1.1619999408721924 3.7839999198913574,0.9639999866485596 3.7839999198913574,0.7940000295639038 C3.7839999198913574,0.4259999990463257 3.7839999198913574,0.0560000017285347 3.7839999198913574,-0.31200000643730164 C3.7839999198913574,-0.5669999718666077 3.7839999198913574,-0.8230000138282776 3.7839999198913574,-1.1059999465942383 C3.7839999198913574,-1.2480000257492065 3.7839999198913574,-1.3600000143051147 3.7839999198913574,-1.5019999742507935 C3.7839999198913574,-1.6150000095367432 3.7839999198913574,-1.7580000162124634 3.75600004196167,-1.871000051498413 C3.7279999256134033,-1.9559999704360962 3.6419999599456787,-2.0409998893737793 3.556999921798706,-2.069000005722046 C3.4149999618530273,-2.069000005722046 3.302999973297119,-2.013000011444092 3.246000051498413,-1.9559999704360962 C2.8489999771118164,-1.6729999780654907 2.253999948501587,-1.1059999465942383 2.253999948501587,-1.1059999465942383 C2.253999948501587,-1.1059999465942383 1.9700000286102295,-0.8500000238418579 1.9700000286102295,-0.5669999718666077 C1.9700000286102295,-0.5669999718666077 1.9700000286102295,-0.5669999718666077 1.9700000286102295,-0.5669999718666077z"/></g></g></g></svg>